<svg xmlns="http://www.w3.org/2000/svg" viewBox="0 0 32 32" fill="none">
  <defs>
    <linearGradient id="g" x1="4" y1="4" x2="28" y2="28" gradientUnits="userSpaceOnUse">
      <stop offset="0%" stop-color="#7C3AED"/>
      <stop offset="100%" stop-color="#06B6D4"/>
    </linearGradient>
  </defs>
  <rect width="32" height="32" rx="6" fill="#0B0F1A"/>
  <path d="M16 5c-.2 0-.5.1-.7.2L8.5 13.5c-.4.5-.5 1.1-.3 1.7l2.5 7.5c.2.5.7.8 1.2.8h8.2c.5 0 1-.3 1.2-.8l2.5-7.5c.2-.6.1-1.2-.3-1.7L16.7 5.2c-.2-.1-.5-.2-.7-.2z" fill="url(#g)"/>
  <circle cx="16" cy="14" r="2.5" fill="white" opacity="0.9"/>
  <path d="M13 23.5l1.5 3.5h3l1.5-3.5" stroke="url(#g)" stroke-width="1.5" fill="none" stroke-linecap="round"/>
</svg>